# xmcd
#
# Track frame offsets: 
#        150
#        14563
#        29038
#        43145
#        60011
#        73013
#        95184
#        116159
#        129792
#        160538
#        180806
#        194686
#        205733
#
# Disc length: 2909 seconds
#
# Revision: 0
# Processed by: cddbd v1.5.2PL0 Copyright (c) Steve Scherf et al.
# Submitted via: ExactAudioCopy v1.0b4
#
DISCID=b00b5b0d
DTITLE=Paul Bonn - 50 Years
DYEAR=2016
DGENRE=Blues
TTITLE0=East Side House Party
TTITLE1=Don't Drift Away
TTITLE2=Stop The Killin'
TTITLE3=You Gotta Move
TTITLE4=Blues City Deli
TTITLE5=Uncle Jim's Wine
TTITLE6=Packin' House Blues
TTITLE7=Here It Comes Again
TTITLE8=I Still Believe I Can
TTITLE9=Centreville Boogie
TTITLE10=Good Old Days
TTITLE11=Hypnotized
TTITLE12=What A Wonderful World
EXTD=
EXTT0=
EXTT1=
EXTT2=
EXTT3=
EXTT4=
EXTT5=
EXTT6=
EXTT7=
EXTT8=
EXTT9=
EXTT10=
EXTT11=
EXTT12=
PLAYORDER=
